<svg xmlns="http://www.w3.org/2000/svg" xmlns:xlink="http://www.w3.org/1999/xlink" width="500" zoomAndPan="magnify" viewBox="0 0 375 374.999991" height="500" preserveAspectRatio="xMidYMid meet" version="1.0"><defs><clipPath id="0fd55b2f63"><path d="M 0 182.261719 L 252.472656 182.261719 L 252.472656 275.261719 L 0 275.261719 Z M 0 182.261719 " clip-rule="nonzero"/></clipPath></defs><path fill="#ff1616" d="M 254.582031 205.300781 L 254.570312 205.261719 L 254.566406 205.261719 Z M 254.582031 205.300781 " fill-opacity="1" fill-rule="nonzero"/><path fill="#ff1616" d="M 153.765625 228.796875 L 153.773438 228.796875 C 153.761719 228.769531 153.746094 228.734375 153.734375 228.707031 L 153.726562 228.707031 C 153.738281 228.738281 153.753906 228.769531 153.765625 228.796875 " fill-opacity="1" fill-rule="nonzero"/><path fill="#ff1616" d="M 98.742188 246.152344 C 98.742188 246.15625 98.75 246.164062 98.75 246.167969 L 98.746094 246.152344 L 98.742188 246.152344 " fill-opacity="1" fill-rule="nonzero"/><g clip-path="url(#0fd55b2f63)"><path fill="#ff1616" d="M 1.597656 258.839844 C 2.503906 261.050781 3.816406 263.113281 5.40625 264.871094 C 7.003906 266.625 8.847656 268.0625 10.761719 269.230469 C 14.613281 271.558594 18.703125 272.882812 22.722656 273.75 C 26.757812 274.605469 30.765625 275.007812 34.738281 275.179688 C 38.703125 275.351562 42.636719 275.242188 46.53125 275.003906 C 54.324219 274.515625 61.988281 273.414062 69.539062 271.929688 C 73.308594 271.183594 77.054688 270.363281 80.769531 269.4375 C 84.492188 268.527344 88.1875 267.527344 91.855469 266.457031 C 97.582031 264.800781 103.25 262.976562 108.867188 261.023438 C 112.503906 259.757812 116.117188 258.441406 119.71875 257.082031 C 124.792969 255.167969 129.835938 253.171875 134.847656 251.128906 C 143.230469 247.691406 151.542969 244.113281 159.8125 240.460938 C 163.164062 238.980469 166.511719 237.484375 169.855469 235.984375 C 172.078125 234.988281 174.300781 233.988281 176.515625 232.988281 C 190.292969 226.742188 204 220.347656 217.625 213.777344 C 226.71875 209.378906 235.878906 204.917969 244.921875 200.386719 C 246.578125 199.558594 249.289062 198.179688 251.09375 197.261719 C 252.300781 196.648438 252.527344 194.976562 251.484375 194.117188 C 251.421875 194.070312 251.363281 194.023438 251.300781 193.988281 C 249.695312 193.007812 247.683594 192.980469 246.050781 193.917969 C 245.097656 194.464844 244.078125 195.054688 243.347656 195.472656 C 234.34375 200.695312 225.226562 205.714844 215.980469 210.492188 C 202.597656 217.417969 188.976562 223.886719 175.101562 229.746094 C 174.128906 230.164062 173.15625 230.566406 172.179688 230.964844 C 171.683594 231.179688 171.191406 231.382812 170.695312 231.582031 C 170.472656 231.671875 170.25 231.761719 170.03125 231.851562 C 169.699219 231.988281 169.359375 232.132812 169.023438 232.265625 C 168.691406 232.402344 168.367188 232.535156 168.035156 232.667969 C 167.785156 232.773438 167.535156 232.871094 167.289062 232.972656 C 166.691406 233.210938 166.09375 233.453125 165.503906 233.691406 C 165.492188 233.6875 165.488281 233.695312 165.476562 233.695312 C 164.621094 234.035156 163.769531 234.371094 162.910156 234.710938 C 162.058594 235.042969 161.183594 235.308594 160.324219 235.640625 C 159.464844 235.96875 158.605469 236.292969 157.722656 236.554688 L 157.707031 236.5625 C 149.53125 239.960938 141.132812 242.648438 132.746094 245.347656 C 126.839844 247.253906 120.878906 248.972656 114.957031 250.765625 L 114.941406 250.773438 C 111.230469 251.898438 107.523438 253.023438 103.738281 253.867188 C 103.730469 253.871094 103.730469 253.871094 103.730469 253.871094 L 103.683594 253.882812 C 99.007812 255.304688 94.238281 256.410156 89.496094 257.554688 C 87.679688 257.988281 85.875 258.445312 84.058594 258.855469 C 82.246094 259.269531 80.433594 259.691406 78.613281 260.078125 C 74.976562 260.847656 71.351562 261.609375 67.703125 262.269531 C 60.425781 263.59375 53.125 264.695312 45.863281 265.257812 C 42.230469 265.539062 38.613281 265.652344 35.035156 265.589844 C 31.464844 265.523438 27.929688 265.238281 24.566406 264.605469 C 21.207031 263.972656 17.984375 263.007812 15.316406 261.496094 C 12.644531 259.988281 10.609375 257.996094 9.453125 255.46875 C 8.269531 252.957031 7.996094 249.859375 8.375 246.613281 C 8.761719 243.359375 9.792969 240.007812 11.113281 236.722656 C 12.441406 233.429688 14.101562 230.195312 15.925781 227.027344 C 17.742188 223.855469 19.757812 220.761719 21.867188 217.707031 C 26.09375 211.613281 30.765625 205.753906 35.609375 200.019531 C 40.460938 194.296875 45.527344 188.707031 50.679688 183.175781 L 49.929688 182.371094 C 44.023438 187.117188 38.296875 192.109375 32.808594 197.382812 C 27.316406 202.652344 22.054688 208.210938 17.175781 214.164062 C 12.332031 220.144531 7.804688 226.496094 4.332031 233.722656 C 2.621094 237.339844 1.183594 241.207031 0.445312 245.433594 C 0.078125 247.542969 -0.0976562 249.75 0.0585938 252.027344 C 0.207031 254.289062 0.699219 256.621094 1.597656 258.839844 " fill-opacity="1" fill-rule="nonzero"/></g><path fill="#ff1616" d="M 347.453125 225.914062 C 347.453125 225.929688 347.457031 225.9375 347.453125 225.941406 C 347.464844 225.957031 347.464844 225.96875 347.46875 225.980469 L 347.570312 225.90625 C 347.53125 225.90625 347.492188 225.910156 347.453125 225.914062 " fill-opacity="1" fill-rule="nonzero"/><path fill="#ff1616" d="M 239.792969 176.484375 L 248.769531 182.046875 L 251.195312 183.550781 C 251.195312 183.550781 257.105469 187.21875 257.152344 187.246094 C 258.515625 188.089844 259.75 189.167969 260.511719 190.597656 C 261.183594 191.859375 261.378906 193.273438 261.65625 194.652344 C 262.082031 196.789062 262.511719 198.921875 262.9375 201.054688 L 262.941406 201.074219 L 265.355469 213.109375 C 265.683594 214.726562 266.957031 215.328125 268.210938 214.453125 C 269.460938 213.578125 270.527344 211.507812 270.566406 209.855469 L 270.863281 196.933594 L 270.863281 196.921875 L 271.039062 188.246094 L 283.589844 180.148438 L 284.503906 179.558594 L 284.519531 179.550781 L 320.25 156.511719 L 320.5625 158.027344 L 320.5625 158.035156 L 320.578125 158.054688 L 320.710938 158.035156 L 322.972656 166.988281 L 322.988281 167.039062 L 334.898438 221.050781 C 335.152344 222.175781 335.746094 222.925781 336.585938 222.667969 L 336.632812 222.65625 C 336.949219 222.558594 337.3125 222.40625 337.664062 222.160156 L 343.292969 218.210938 C 344.605469 217.296875 345.65625 215.269531 345.601562 213.671875 L 345.128906 198.550781 C 345.527344 198.480469 345.808594 198.164062 346.160156 197.914062 L 348.636719 196.183594 L 349.304688 195.71875 C 350.617188 194.804688 351.210938 193.261719 350.296875 191.949219 L 349.628906 190.992188 C 349.335938 190.574219 348.921875 190.222656 348.449219 189.976562 C 347.453125 189.445312 346.195312 189.359375 345.308594 189.980469 L 344.738281 190.375 L 344.425781 177.203125 C 344.824219 177.132812 345.34375 177.160156 345.695312 176.914062 L 346.996094 176.003906 L 348.75 174.78125 C 350.054688 173.867188 350.394531 171.992188 349.480469 170.679688 L 348.816406 169.726562 C 348.21875 168.871094 347.105469 168.277344 346.042969 168.226562 C 345.472656 168.191406 344.917969 168.316406 344.464844 168.636719 L 343.988281 168.960938 L 343.566406 154.097656 L 343.550781 153.429688 L 343.25 143.007812 L 343.207031 141.539062 L 361.265625 130.195312 L 361.40625 130.105469 C 365.539062 127.429688 372.175781 120.15625 374.175781 114.804688 C 374.859375 112.972656 375 111.363281 374.3125 110.242188 C 373.667969 109.195312 372.355469 108.671875 370.652344 108.527344 C 365.226562 108.066406 355.851562 111.476562 351.628906 114.214844 C 351.550781 114.265625 345.214844 119.019531 335.972656 125.992188 C 335.667969 126.21875 335.371094 126.449219 335.058594 126.683594 C 334.59375 127.035156 334.117188 127.394531 333.632812 127.753906 L 332.730469 127.386719 L 332.128906 127.144531 L 323.832031 123.757812 L 308.011719 117.304688 L 308.484375 116.980469 C 309.800781 116.0625 310.191406 114.269531 309.28125 112.960938 L 308.617188 112.003906 C 307.699219 110.691406 306.085938 110.734375 304.777344 111.644531 L 301.722656 113.777344 C 301.375 114.023438 300.929688 114.105469 300.722656 114.457031 L 288.207031 109.199219 L 288.769531 108.804688 C 290.082031 107.890625 290.539062 106.152344 289.625 104.839844 L 288.960938 103.886719 C 288.050781 102.574219 286.082031 102.152344 284.773438 103.066406 L 281.625 105.261719 C 281.273438 105.507812 281 105.832031 280.796875 106.179688 L 266.777344 100.480469 C 265.300781 99.878906 262.9375 100.027344 261.632812 100.941406 L 255.996094 104.871094 C 254.6875 105.785156 254.785156 107.351562 256.128906 108.222656 L 300.707031 137.109375 L 309.683594 142.933594 L 311.785156 144.292969 C 311.101562 144.808594 310.414062 145.324219 309.734375 145.839844 C 291.003906 159.976562 271.640625 174.589844 264.9375 179.648438 L 257.128906 176.972656 L 248.285156 173.945312 L 244.640625 172.695312 C 243.085938 172.160156 240.785156 172.441406 239.535156 173.3125 C 238.277344 174.191406 238.398438 175.617188 239.792969 176.484375 " fill-opacity="1" fill-rule="nonzero"/></svg>